<?xml version="1.0" encoding="UTF-8"?>
<svg xmlns="http://www.w3.org/2000/svg" xmlns:xlink="http://www.w3.org/1999/xlink" width="20px" height="20px" viewBox="0 0 20 20" version="1.1">
<g id="surface1">
<path style=" stroke:none;fill-rule:nonzero;fill:#fff;fill-opacity:1;" d="M 6.160156 9.921875 C 4.558594 9.121094 3.480469 7.519531 3.480469 5.601562 C 3.480469 2.960938 5.640625 0.800781 8.28125 0.800781 C 10.921875 0.800781 13.078125 2.960938 13.078125 5.601562 C 13.078125 8.199219 11.039062 10.320312 8.441406 10.398438 L 8.398438 10.398438 C 4.441406 10.398438 1.199219 13.640625 1.199219 17.601562 C 1.199219 17.839844 1.039062 18 0.800781 18 C 0.558594 18 0.398438 17.839844 0.398438 17.601562 C 0.398438 13.960938 2.839844 10.878906 6.160156 9.921875 Z M 8.28125 9.601562 C 10.480469 9.601562 12.28125 7.800781 12.28125 5.601562 C 12.28125 3.398438 10.480469 1.601562 8.28125 1.601562 C 6.078125 1.601562 4.28125 3.398438 4.28125 5.601562 C 4.28125 7.800781 6.078125 9.601562 8.28125 9.601562 Z M 19.238281 12.238281 L 19.320312 12.441406 L 18.359375 13.601562 C 18.199219 13.800781 18.199219 14.121094 18.359375 14.320312 L 19.320312 15.441406 L 19.238281 15.640625 C 19.039062 16.199219 18.761719 16.761719 18.359375 17.199219 L 18.199219 17.359375 L 16.71875 17.121094 C 16.480469 17.078125 16.199219 17.238281 16.121094 17.480469 L 15.601562 18.921875 L 15.398438 18.960938 C 14.640625 19.121094 13.878906 19.121094 13.121094 18.960938 L 12.878906 18.921875 L 12.398438 17.519531 C 12.320312 17.28125 12.039062 17.121094 11.800781 17.160156 L 10.28125 17.398438 L 10.121094 17.238281 C 9.921875 17.039062 9.761719 16.800781 9.640625 16.558594 C 9.480469 16.28125 9.320312 15.960938 9.238281 15.640625 L 9.160156 15.441406 L 10.160156 14.320312 C 10.320312 14.121094 10.320312 13.800781 10.160156 13.640625 L 9.199219 12.480469 L 9.28125 12.28125 C 9.480469 11.679688 9.800781 11.160156 10.199219 10.679688 L 10.359375 10.519531 L 11.800781 10.761719 C 12.039062 10.800781 12.320312 10.640625 12.441406 10.398438 L 12.960938 9 L 13.160156 8.960938 C 13.878906 8.800781 14.640625 8.800781 15.398438 8.960938 L 15.640625 9 L 16.121094 10.359375 C 16.199219 10.601562 16.480469 10.800781 16.761719 10.761719 L 18.238281 10.558594 L 18.398438 10.71875 C 18.601562 10.960938 18.761719 11.160156 18.878906 11.441406 C 19 11.640625 19.121094 11.960938 19.238281 12.238281 Z M 18.121094 11.761719 C 18.039062 11.601562 17.960938 11.480469 17.839844 11.320312 L 16.800781 11.441406 C 16.160156 11.519531 15.519531 11.121094 15.320312 10.519531 L 15 9.601562 C 14.519531 9.519531 14.039062 9.519531 13.558594 9.601562 L 13.199219 10.558594 C 13 11.160156 12.320312 11.558594 11.679688 11.441406 L 10.679688 11.28125 C 10.441406 11.558594 10.28125 11.921875 10.121094 12.238281 L 10.800781 13.039062 C 11.199219 13.519531 11.199219 14.28125 10.800781 14.761719 L 10.121094 15.558594 C 10.199219 15.761719 10.28125 15.921875 10.398438 16.121094 C 10.480469 16.28125 10.558594 16.398438 10.679688 16.519531 L 11.761719 16.359375 C 12.398438 16.28125 13.039062 16.679688 13.238281 17.28125 L 13.558594 18.238281 C 14.039062 18.320312 14.558594 18.320312 15.039062 18.238281 L 15.398438 17.238281 C 15.601562 16.640625 16.28125 16.238281 16.878906 16.359375 L 17.878906 16.519531 C 18.078125 16.238281 18.28125 15.921875 18.398438 15.558594 L 17.761719 14.800781 C 17.359375 14.320312 17.320312 13.558594 17.71875 13.078125 L 18.398438 12.28125 C 18.320312 12.121094 18.238281 11.960938 18.121094 11.761719 Z M 14.28125 15.761719 C 13.28125 15.761719 12.480469 14.960938 12.480469 13.960938 C 12.480469 12.960938 13.28125 12.160156 14.28125 12.160156 C 15.28125 12.160156 16.078125 12.960938 16.078125 13.960938 C 16.078125 14.960938 15.238281 15.761719 14.28125 15.761719 Z M 14.28125 14.960938 C 14.839844 14.960938 15.28125 14.519531 15.28125 13.960938 C 15.28125 13.398438 14.839844 12.960938 14.28125 12.960938 C 13.71875 12.960938 13.28125 13.398438 13.28125 13.960938 C 13.28125 14.519531 13.71875 14.960938 14.28125 14.960938 Z M 14.28125 14.960938 "/>
</g>
</svg>
