<svg xmlns="http://www.w3.org/2000/svg" width="20" height="20" viewBox="0 0 20 20"><path d="M1.2249 8.96853C1.2249 8.96853 10.0712 5.45587 13.1399 4.2177C14.3149 3.72415 18.3024 2.14136 18.3024 2.14136C18.3024 2.14136 20.1437 1.44843 19.9899 3.13091C19.9399 3.82261 19.5312 6.24726 19.1212 8.86884C18.5087 12.5797 17.8437 16.6351 17.8437 16.6351C17.8437 16.6351 17.7412 17.7736 16.8724 17.9717C16.0024 18.1687 14.5712 17.2788 14.3149 17.0807C14.1112 16.933 10.4812 14.7065 9.1524 13.6184C8.79365 13.3218 8.38365 12.7274 9.2024 12.0357C11.0437 10.4024 13.2412 8.37406 14.5712 7.08789C15.1837 6.49465 15.7987 5.10879 13.2412 6.79127C9.61115 9.21592 6.0324 11.4904 6.0324 11.4904C6.0324 11.4904 5.21365 11.9852 3.6799 11.5396C2.14615 11.0953 0.357404 10.5033 0.357404 10.5033C0.357404 10.5033 -0.870096 9.76116 1.22615 8.96977L1.2249 8.96853Z" fill="#fff"/></svg>