<svg xmlns="http://www.w3.org/2000/svg" width="20" height="20" viewBox="0 0 20 20"><path fill="#fff" d="m10,10.12277c-1.39655,0 -2.58881,-0.49478 -3.57681,-1.48438c-0.98798,-0.98959 -1.48196,-2.18005 -1.48196,-3.57144c0,-1.3988 0.49399,-2.59299 1.48196,-3.58258c0.98801,-0.98959 2.18027,-1.48438 3.57681,-1.48438c1.39655,0 2.58881,0.49478 3.57681,1.48438c0.98798,0.98959 1.48196,2.18378 1.48196,3.58258c0,1.39139 -0.49399,2.58185 -1.48196,3.57144c-0.98801,0.98959 -2.18027,1.48438 -3.57681,1.48438zm0,-7.55582c-0.68341,0 -1.2684,0.24368 -1.75497,0.73105c-0.48657,0.48734 -0.72986,1.077 -0.72986,1.76895c0,0.68454 0.24329,1.27048 0.72986,1.75781c0.48657,0.48737 1.07156,0.73102 1.75497,0.73102c0.68341,0 1.2684,-0.24365 1.75497,-0.73102c0.48657,-0.48734 0.72986,-1.07327 0.72986,-1.75781c0,-0.69196 -0.24329,-1.28162 -0.72986,-1.76895c-0.48657,-0.48737 -1.07156,-0.73105 -1.75497,-0.73105zm5.82761,8.16965c0.09659,0.2009 0.15228,0.38504 0.16714,0.55246c0.01486,0.16742 -0.00186,0.31808 -0.05014,0.452c-0.04828,0.13394 -0.1467,0.27716 -0.29529,0.42969c-0.14856,0.15256 -0.30643,0.29019 -0.47354,0.41296c-0.16714,0.12277 -0.39557,0.27716 -0.68527,0.46317c-0.85428,0.54315 -2.02426,0.89285 -3.50995,1.0491l0.81342,0.80356l2.9751,2.97992c0.22284,0.23065 0.33426,0.50595 0.33426,0.8259c0,0.31995 -0.11142,0.59152 -0.33426,0.81473l-0.13373,0.14511c-0.23029,0.22321 -0.50513,0.33481 -0.82455,0.33481c-0.31943,0 -0.59427,-0.1116 -0.82455,-0.33481c-0.49771,-0.50598 -1.48941,-1.50299 -2.9751,-2.99109l-2.9751,2.99109c-0.23029,0.22321 -0.50513,0.33481 -0.82455,0.33481c-0.31943,0 -0.59055,-0.1116 -0.81342,-0.33481l-0.1337,-0.14511c-0.23029,-0.22321 -0.34543,-0.49478 -0.34543,-0.81473c0,-0.31995 0.11514,-0.59525 0.34543,-0.8259l3.77734,-3.78348c-1.50797,-0.15625 -2.68536,-0.50595 -3.53223,-1.0491c-0.2897,-0.186 -0.51813,-0.34039 -0.68527,-0.46317c-0.16711,-0.12277 -0.32498,-0.26041 -0.47354,-0.41296c-0.14859,-0.15253 -0.24701,-0.29575 -0.29529,-0.42969c-0.04828,-0.13391 -0.065,-0.28458 -0.05014,-0.452c0.01486,-0.16742 0.07056,-0.35156 0.16714,-0.55246c0.07428,-0.1488 0.17828,-0.27902 0.31198,-0.39063c0.13373,-0.1116 0.2897,-0.19345 0.46799,-0.24551c0.17828,-0.05209 0.38629,-0.04468 0.62399,0.02231c0.2377,0.06696 0.47913,0.19717 0.72427,0.39063c0.03714,0.02975 0.09286,0.07068 0.16714,0.12277c0.07428,0.05206 0.23401,0.14322 0.47913,0.27344c0.24515,0.13019 0.50143,0.24365 0.76886,0.34039c0.26743,0.09674 0.60913,0.186 1.02512,0.26785c0.41599,0.08185 0.83569,0.12277 1.25912,0.12277c0.67599,0 1.32227,-0.09488 1.93881,-0.28461c0.61658,-0.18973 1.06229,-0.37759 1.33713,-0.5636l0.42343,-0.27902c0.24515,-0.19345 0.48657,-0.32367 0.72427,-0.39063c0.2377,-0.06699 0.44571,-0.0744 0.62399,-0.02231c0.17828,0.05206 0.33426,0.13391 0.46799,0.24551c0.1337,0.1116 0.2377,0.24182 0.31198,0.39063l0.00002,0.00001z"/></svg>