<svg xmlns="http://www.w3.org/2000/svg" width="20" height="20" viewBox="0 0 20 20"><path fill="#fff" d="M18 5.148c-.328.092-.666.149-.999.221l-.017-.049a3.791 3.791 0 0 0 1.533-2.024c-.062.03-.093.042-.121.058a7.65 7.65 0 0 1-2.095.815c-.108.024-.167-.01-.24-.075-.181-.16-.359-.33-.558-.463-1.374-.92-3.154-.832-4.409.247-.936.805-1.386 1.85-1.327 3.109.01.214.042.428.066.668-3.095-.215-5.626-1.542-7.637-3.95a3.82 3.82 0 0 0-.405 2.724c.205.958.726 1.712 1.493 2.311a4.718 4.718 0 0 1-.829-.137c-.264-.075-.517-.192-.786-.295.002.896.27 1.686.81 2.38s1.245 1.127 2.085 1.363a5.42 5.42 0 0 1-.788.11c-.26.016-.521.004-.8.004.607 1.57 1.736 2.431 3.434 2.585C4.79 16.003 2.992 16.5 1 16.327c.192.131.374.263.574.357.536.252 1.07.512 1.621.725.847.326 1.73.5 2.633.561 1.209.083 2.403-.004 3.58-.315a10.058 10.058 0 0 0 2.33-.931c.521-.29 1.01-.626 1.474-1.004a8.86 8.86 0 0 0 1.516-1.549c.378-.506.729-1.036 1.05-1.581.459-.778.78-1.622 1.018-2.495.289-1.056.42-2.136.387-3.235-.002-.068.049-.156.101-.205.246-.227.507-.435.75-.666A6.66 6.66 0 0 0 19 4.81c-.346.118-.669.246-1 .339z"/></svg>