<svg xmlns="http://www.w3.org/2000/svg" width="20" height="20" viewBox="0 0 20 20"><path fill="#fff" d="m 7.22171,18 h 3.85859 v -6.7824 c 0,-0.363 0.025,-0.7256 0.1269,-0.9851 0.279,-0.72522 0.9139,-1.47635 1.9798,-1.47635 1.3962,0 1.9548,1.11375 1.9548,2.74645 V 18 H 19 v -6.9639 c 0,-3.73044 -1.9036,-5.46629 -4.4423,-5.46629 -2.0816,0 -2.9954,1.21725 -3.5031,2.04636 h 0.0258 V 5.85481 H 7.22181 C 7.27245,6.99443 7.22171,18 7.22171,18 Z M 5.08668,18 V 5.85481 H 1.2281 V 18 Z M 3.15737,4.19659 c 1.34557,0 2.18307,-0.93262 2.18307,-2.09812 C 5.31536,0.906738 4.50294,0 3.1829,0 1.86299,0 1,0.906738 1,2.09847 1,3.26397 1.83732,4.19659 3.13222,4.19659 Z"/></svg>