<svg xmlns="http://www.w3.org/2000/svg" width="20" height="20" viewBox="0 0 20 20"><path fill="#fff" d="M11.0653 2.45429C11.0076 2.44639 10.9391 2.44113 10.8652 2.43586C10.5624 2.4148 9.93241 2.37004 9.96936 1.73548C9.98558 1.46077 10.1118 1 10.7769 1C10.8506 1 10.9228 1.00489 10.9859 1.00917L10.9932 1.00965C10.998 1.00996 11.0028 1.01028 11.0076 1.01058C11.057 1.01376 11.1023 1.01668 11.141 1.01668C11.1575 1.01694 11.1741 1.01606 11.1905 1.01404C11.2067 1.01141 11.223 1.01141 11.241 1.01141C15.4191 1.14833 19.0403 4.84242 18.988 8.91479C18.988 8.96625 18.9903 9.0238 18.9928 9.08532L18.9934 9.0991C19.0069 9.36942 19.0213 9.70556 18.7996 9.93112C18.6716 10.061 18.4941 10.1268 18.2697 10.1268H18.2481C17.5347 10.1137 17.5235 9.46673 17.5181 9.15495C17.5172 9.06806 17.5154 8.985 17.5064 8.91742C16.99 4.93457 15.1235 3.06251 11.0653 2.45429Z M17.0521 13.8683C17.1375 13.9349 17.2237 14.0005 17.3108 14.0649C17.9633 14.5503 18.7762 15.155 18.331 16.3785C17.8236 17.7748 16.1698 19 14.7927 19H14.7693C14.7447 18.9999 14.7201 18.9966 14.6963 18.9904C14.6531 18.979 14.5936 18.9658 14.5251 18.9509C14.3223 18.907 14.0456 18.8464 13.7816 18.7359C10.8544 17.508 8.32731 15.8747 6.27161 13.8797C4.17084 11.8418 2.50536 9.37205 1.32024 6.53982C0.911082 5.56035 0.893057 4.61861 1.27157 3.81643C1.66361 2.98703 2.44588 2.35863 3.53727 2.00142C3.94419 1.85943 4.38931 1.86067 4.79539 2.00493C5.74529 2.34458 7.99927 5.3383 8.05514 6.3327C8.10291 7.20948 7.41166 7.66675 7.03945 7.91249C6.38516 8.34606 6.2644 8.87792 6.6366 9.6924C7.40626 11.3766 8.7527 12.6528 10.6363 13.4848C10.8347 13.5797 11.0516 13.6326 11.2725 13.6401C11.5907 13.6401 11.8493 13.4874 12.062 13.1732C12.5433 12.4649 13.1255 12.1051 13.7942 12.1051C14.2899 12.1051 14.8144 12.2991 15.3984 12.6984L15.7214 12.9181C16.1643 13.2196 16.6214 13.5307 17.0521 13.8683Z M10.5759 6.17559C10.748 5.68937 11.2392 5.67708 11.4744 5.67181C12.0999 5.65689 12.7866 5.97461 13.3562 6.53807C13.9249 7.09977 14.2583 7.80542 14.2511 8.4268C14.2709 9.02274 14.0483 9.35186 13.5887 9.40452C13.56 9.40799 13.5311 9.40975 13.5022 9.40979C13.121 9.40979 12.8227 9.10875 12.7785 8.67869C12.6839 7.75451 12.2089 7.25775 11.2852 7.11382C11.031 7.07344 10.7507 6.99972 10.6047 6.76275C10.5047 6.60038 10.4948 6.40379 10.5759 6.17559Z M11.6221 3.36701C14.3718 3.68912 16.5915 6.01581 16.5699 8.55401L16.569 8.55314C16.5692 8.56487 16.5686 8.5766 16.5672 8.58824C16.5601 8.63395 16.5626 8.7017 16.5652 8.77399L16.5654 8.77782C16.5744 9.03857 16.5931 9.58091 15.9841 9.67128C15.9228 9.68006 15.8633 9.68445 15.8092 9.68445C15.1555 9.68445 15.1181 9.09374 15.1001 8.80778L15.1 8.8059C15.0995 8.79942 15.099 8.79297 15.0986 8.78655C15.0937 8.71743 15.0892 8.65266 15.0801 8.59965C14.6737 6.21328 13.8418 5.36809 11.3707 4.83008C11.3137 4.81783 11.2465 4.80863 11.1757 4.79892L11.1598 4.79673C10.8957 4.76162 10.5668 4.71774 10.3802 4.47112C10.2694 4.32455 10.2324 4.13585 10.2712 3.91204C10.3108 3.68297 10.4613 3.2968 11.0255 3.2968C11.1662 3.30024 11.3063 3.31492 11.4446 3.34068C11.5076 3.35122 11.5671 3.36087 11.6221 3.36701Z"/></svg>