<svg xmlns="http://www.w3.org/2000/svg" version="1.0" viewBox="0 0 100 100" id="Emoji"><path fill="none" stroke="#d85b53" stroke-linecap="round" stroke-linejoin="round" stroke-miterlimit="10" stroke-width="2" d="M34.998 65.02a16.32 16.32 0 0 1 3.519-5.268 16.333 16.333 0 0 1 5.268-3.518A16.177 16.177 0 0 1 50 54.998c2.202 0 4.296.441 6.213 1.236a16.29 16.29 0 0 1 5.268 3.518 16.28 16.28 0 0 1 0 0 16.3 16.3 0 0 0-5.268-3.518A16.167 16.167 0 0 0 50 54.998c-2.201 0-4.299.441-6.215 1.236a16.311 16.311 0 0 0-5.268 3.518 16.298 16.298 0 0 0-3.519 5.268z" class="colorStroke000000 svgStroke"></path><path fill="none" stroke="#d85b53" stroke-linecap="round" stroke-linejoin="round" stroke-miterlimit="10" stroke-width="2" d="M82.5 49.998c0 17.95-14.554 32.502-32.497 32.502C32.049 82.5 17.5 67.947 17.5 49.998S32.049 17.5 50.003 17.5C67.946 17.5 82.5 32.049 82.5 49.998z" class="colorStroke000000 svgStroke"></path><path fill="none" stroke="#d85b53" stroke-linecap="round" stroke-linejoin="round" stroke-miterlimit="10" stroke-width="2" d="M42.502 39.997A5 5 0 1 1 32.501 40a5 5 0 0 1 10.001-.003zm24.996 0a4.998 4.998 0 1 1-9.998 0 4.998 4.998 0 0 1 4.999-4.999 4.998 4.998 0 0 1 4.999 4.999z" class="colorStroke000000 svgStroke"></path></svg>