<svg xmlns="http://www.w3.org/2000/svg" width="32" height="44" viewBox="0 0 32 44"><path d="M14.4282 36.56C12.2949 36.56 10.4416 36.1333 8.86824 35.28C7.29491 34.4267 6.08158 33.2 5.22824 31.6C4.37491 30 3.94824 28.0533 3.94824 25.76C3.94824 23.2 4.30824 20.8133 5.02824 18.6C5.74824 16.36 6.77491 14.4133 8.10824 12.76C9.44158 11.08 11.0149 9.77334 12.8282 8.84C14.6416 7.90667 16.6416 7.44 18.8282 7.44C20.9616 7.44 22.8016 7.86667 24.3482 8.72C25.9216 9.57334 27.1349 10.8 27.9882 12.4C28.8682 14 29.3082 15.9467 29.3082 18.24C29.3082 20.8 28.9349 23.2 28.1882 25.44C27.4682 27.6533 26.4416 29.6 25.1082 31.28C23.8016 32.9333 22.2416 34.2267 20.4282 35.16C18.6149 36.0933 16.6149 36.56 14.4282 36.56ZM15.1882 30.08C16.2282 30.08 17.1349 29.6933 17.9082 28.92C18.6816 28.12 19.3216 27.12 19.8282 25.92C20.3349 24.72 20.7082 23.4533 20.9482 22.12C21.2149 20.7867 21.3482 19.56 21.3482 18.44C21.3482 16.8133 21.0416 15.6533 20.4282 14.96C19.8416 14.2667 19.0549 13.92 18.0682 13.92C17.0282 13.92 16.1216 14.32 15.3482 15.12C14.5749 15.8933 13.9349 16.88 13.4282 18.08C12.9216 19.28 12.5349 20.5467 12.2682 21.88C12.0282 23.2133 11.9082 24.44 11.9082 25.56C11.9082 27.1867 12.2016 28.3467 12.7882 29.04C13.4016 29.7333 14.2016 30.08 15.1882 30.08Z" fill="url(#paint0_linear_5092_4522)"/><defs><linearGradient id="paint0_linear_5092_4522" x1="23.2" y1="-5.5" x2="10.63" y2="58.58" gradientUnits="userSpaceOnUse"><stop stop-color="#fff"/><stop offset="1" stop-color="#131119" stop-opacity="0"/></linearGradient></defs></svg>